<svg width="134" height="150" viewBox="0 0 134 150" fill="none" xmlns="http://www.w3.org/2000/svg">
<path d="M13.1317 31.0258L14.8222 27.4005C21.7076 12.6346 39.2596 6.24624 54.0255 13.1317L85.2931 27.712L58.6682 84.8094L27.4005 70.2291L26.7143 69.8983C12.4382 62.7955 6.35387 45.5609 13.1317 31.0258Z" fill="#E70000" stroke="black"/>
<path d="M122.5 85.5V120C122.5 136.292 109.292 149.5 93 149.5H89C72.7076 149.5 59.5 136.292 59.5 120V85.5H122.5Z" fill="white" stroke="black"/>
<path d="M77 74.5C77 67.0442 83.0442 61 90.5 61C97.9558 61 104 67.0442 104 74.5V85H77V74.5Z" fill="#9EC9F9"/>
<circle cx="91" cy="52" r="15" fill="#9EC9F9"/>
<rect x="93.9959" y="74.8882" width="29" height="6.35612" rx="3.17806" transform="rotate(-40 93.9959 74.8882)" fill="#9EC9F9"/>
<circle cx="121.5" cy="55.5" r="3.5" fill="#9EC9F9"/>
<path d="M123.707 45.4749C127.316 46.1117 130.141 48.9372 130.778 52.5459L130.071 53.253C129.434 49.6443 126.609 46.8188 123 46.182L123.707 45.4749Z" fill="black"/>
<path d="M121.707 47.4749C125.316 48.1117 128.141 50.9372 128.778 54.5459L128.071 55.253C127.434 51.6443 124.609 48.8188 121 48.182L121.707 47.4749Z" fill="black"/>
</svg>
